<?xml version="1.0" encoding="UTF-8"?>
<svg id="Layer_2" data-name="Layer 2" xmlns="http://www.w3.org/2000/svg" viewBox="0 0 504.8 502.55">
  <defs>
    <style>
      .cls-1 {
        fill: none;
        stroke: #f7f7f7;
        stroke-miterlimit: 10;
        stroke-width: .5px;
      }
    </style>
  </defs>
  <g id="linework">
    <g>
      <g>
        <path class="cls-1" d="M502.96,251.13h0c-147.12-64.73-371.2-66.59-501.38,0h0c130.18,66.59,354.26,64.73,501.38,0Z"/>
        <path class="cls-1" d="M502.96,251.13h0c-147.12-140.02-371.2-144.06-501.38,0h0c130.18,144.06,354.26,140.02,501.38,0Z"/>
        <path class="cls-1" d="M502.96,251.13h0c-147.12-20.24-371.2-20.82-501.38,0h0c130.18,20.82,354.26,20.24,501.38,0Z"/>
        <path class="cls-1" d="M1.58,251.13s84.98-80.25,250.69-80.25c165.71,0,250.69,80.25,250.69,80.25,0,0-84.98,80.25-250.69,80.25S1.58,251.13,1.58,251.13Z"/>
      </g>
      <g>
        <path class="cls-1" d="M252.27,501.93h0c64.73-147.12,66.59-371.2,0-501.38h0c-66.59,130.18-64.73,354.26,0,501.38Z"/>
        <path class="cls-1" d="M252.27,501.93h0c140.02-147.12,144.06-371.2,0-501.38h0c-144.06,130.18-140.02,354.26,0,501.38Z"/>
        <path class="cls-1" d="M252.27.55s80.25,84.98,80.25,250.69c0,165.71-80.25,250.69-80.25,250.69,0,0-80.25-84.98-80.25-250.69S252.27.55,252.27.55Z"/>
        <path class="cls-1" d="M252.27,501.93c20.24-147.12,20.82-371.2,0-501.38"/>
        <path class="cls-1" d="M252.27.55h0c-20.82,130.18-20.24,354.26,0,501.38h0"/>
      </g>
    </g>
  </g>
</svg>