<svg width="1439" height="361" viewBox="0 0 1439 361" fill="none" xmlns="http://www.w3.org/2000/svg">
<g clip-path="url(#clip0_5495_803)">
<path d="M1488.06 1586.37C1235.44 936.664 554.089 243.742 -49.2295 48.7217C145.744 652.184 838.501 1333.7 1488.06 1586.37Z" stroke="#F7F7F7" stroke-width="0.5" stroke-miterlimit="10"/>
<path d="M1488.06 1586.37C1466.29 705.761 791.621 6.15347 -49.2282 48.7212C-91.7858 889.772 607.655 1564.6 1488.06 1586.37Z" stroke="#F7F7F7" stroke-width="0.5" stroke-miterlimit="10"/>
<path d="M1488.06 1586.37C1099.03 1073.11 413.754 384.112 -49.2284 48.7221C286.081 511.815 974.913 1197.25 1488.06 1586.37Z" stroke="#F7F7F7" stroke-width="0.5" stroke-miterlimit="10"/>
<path d="M-49.229 48.7204C-49.229 48.7204 457.384 63.2266 965.469 571.433C1473.55 1079.64 1488.06 1586.37 1488.06 1586.37C1488.06 1586.37 981.443 1571.87 473.359 1063.66C-34.7264 555.455 -49.229 48.7204 -49.229 48.7204Z" stroke="#F7F7F7" stroke-width="0.5" stroke-miterlimit="10"/>
<path d="M-49.5667 1586.71C599.988 1334.03 1292.74 652.521 1487.72 49.0586C884.401 244.079 203.05 937.001 -49.5667 1586.71Z" stroke="#F7F7F7" stroke-width="0.5" stroke-miterlimit="10"/>
<path d="M-49.5681 1586.71C830.834 1564.94 1530.28 890.108 1487.72 49.0577C646.868 6.4899 -27.7988 706.098 -49.5681 1586.71Z" stroke="#F7F7F7" stroke-width="0.5" stroke-miterlimit="10"/>
<path d="M1487.72 49.0574C1487.72 49.0574 1473.22 555.791 965.131 1064C457.046 1572.2 -49.5672 1586.71 -49.5672 1586.71C-49.5672 1586.71 -35.0645 1079.98 473.02 571.77C981.105 63.5635 1487.72 49.0574 1487.72 49.0574Z" stroke="#F7F7F7" stroke-width="0.5" stroke-miterlimit="10"/>
<path d="M-49.5678 1586.71C463.576 1197.59 1152.41 512.152 1487.72 49.0586" stroke="#F7F7F7" stroke-width="0.5" stroke-miterlimit="10"/>
<path d="M1487.72 49.0585C1024.74 384.448 339.46 1073.44 -49.5679 1586.71" stroke="#F7F7F7" stroke-width="0.5" stroke-miterlimit="10"/>
</g>
<defs>
<clipPath id="clip0_5495_803">
<rect width="1439" height="361" fill="white"/>
</clipPath>
</defs>
</svg>
