<?xml version="1.0" encoding="UTF-8"?>
<svg id="Layer_2" data-name="Layer 2" xmlns="http://www.w3.org/2000/svg" viewBox="0 0 355.64 355.64">
  <defs>
    <style>
      .cls-1 {
        fill: none;
        stroke: #f7f7f7;
        stroke-miterlimit: 10;
        stroke-width: .1px;
      }
    </style>
  </defs>
  <g id="linework">
    <g>
      <path class="cls-1" d="M.44,355.2h0C150.24,296.94,310,139.81,354.97.68h0C215.83,45.64,58.7,205.41.44,355.2Z"/>
      <path class="cls-1" d="M.44,355.2h0C203.48,350.19,364.78,194.59,354.97.68h0C161.05-9.14,5.46,152.16.44,355.2Z"/>
      <path class="cls-1" d="M354.97.68s-3.34,116.83-120.52,234.01C117.27,351.86.44,355.2.44,355.2c0,0,3.34-116.83,120.52-234.01C238.13,4.02,354.97.68,354.97.68Z"/>
      <path class="cls-1" d="M.44,355.2C118.78,265.48,277.64,107.45,354.97.68"/>
      <path class="cls-1" d="M354.97.68h0C248.19,78.01,90.16,236.87.44,355.2h0"/>
    </g>
  </g>
</svg>