<?xml version="1.0" encoding="UTF-8"?>
<svg id="Layer_1" data-name="Layer 1" xmlns="http://www.w3.org/2000/svg" viewBox="0 0 1103.67 667.75">
  <defs>
    <style>
      .cls-1 {
        fill: #fff;
      }
    </style>
  </defs>
  <path class="cls-1" d="M381.2,471.66c-68.05-12.35-131.53-46.93-178.74-97.37-19.86-21.62-44.12-53.63-46.92-83.36-.82-17.33,22.57-25.09,38.05-30.23l2.09-.7c13.08-4.07,26.65-7.32,41.01-10.77,41.12-9.86,83.64-20.06,113.52-50.33,19.37-19.74,27.77-49.95,21.91-78.85-5.48-26.12-26.88-49.57-54.53-59.76-26.77-8.98-55.4-6.4-85.09,7.67-24.23,11.49-48.29,30.62-67.74,53.88-54.02,66.07-91.62,162.13-103.15,263.55v.04c-.35,4.54,2.89,7.19,6.04,7.73,3.22.55,7.24-.86,8.44-5.29,32.42-121.64,76.49-210.65,134.7-272.08,23-23.12,45.57-35.74,69.02-38.59,17.11-2.14,32.64,1.6,42.58,10.28,10.6,9.4,16.06,23.71,17.17,45.06,1.82,22.07-6.85,40.6-25.08,53.59-23.15,16.7-52.02,25.27-79.93,33.56-4.37,1.3-8.71,2.59-13.03,3.9-3.4,1.08-7.08,2.19-10.96,3.36-30.45,9.15-72.15,21.69-78.81,53.44-2.33,11.19.57,22.36,3.71,31.83,5.39,15.53,14.36,31.48,27.45,48.78,51.55,66.32,130.22,111.83,215.86,124.85.38.04.74.06,1.09.06,4.28,0,6.72-3.04,7.19-6.08.53-3.39-1.32-7.29-5.87-8.19ZM554.72,354.3c22.02-23.83,19.62-63.36-10.5-71.57,1.38-6.18-2.78-13.3-10.36-13.4-29.74.07-55.77,17.6-78.54,34.2-10.98,8.16-21.39,16.77-31.59,25.22-8.03,6.3-16.26,13.91-25.09,18.87.05-.53.12-1.09.26-1.82,2.39-10.68,6.57-20.74,10.22-31.4,2.37-7.05,4.82-13.21,6.16-20.97.27-2.19.71-4.44.05-8.05-1.2-7.15-8.46-11.08-15.16-9.69-7.29,1.27-13.41,5.86-18.92,9.96-13.28,10.38-25.59,22.21-38.42,32.41-18.88,14.95-40.92,31.14-64.73,32.95-16.7,1.13-19.53-8.23-17.09-20.74,10.49-1.16,20.76-2.99,31.12-5.69,17.58-4.36,46.33-16.26,37.56-39.61-3.96-11.25-17.1-16.12-27.82-15.67-28.26.74-52.65,22.78-60.22,49.15-5.41,16.28-4.8,38.38,12.36,48.47,33.25,17.87,76.26-14.08,100.23-35.29,10.05-8.81,19.82-18.06,29.74-26.79,4.4-3.56,8.87-7.78,13.79-10.64-1.48,4.41-3.81,9.12-5.7,13.09-6.05,13-14.38,25.89-15.54,40.88-.55,9.97,3.33,21.96,15.12,23.73,15.5,2.19,35.01-16.74,46.55-25.41,20.17-16.28,40.12-33.38,62.7-45.33.14-.07.28-.14.42-.22-6.04,11.54-9.73,24.39-10.71,36.74-2.04,45.71,39.09,43.84,64.1,16.62ZM280.59,297.85c7.48-5.72,19.65-10.56,28.32-8.17,1.72.54,2.66,1.19,3.05,1.67.06.09.09.09.18.25,0,0,.27.49.28.49,1.01,2.2.48,2.99-1.83,5.56-6.15,5.82-14.7,9.19-23.01,12.37-7.16,2.62-14.66,4.83-22.23,6.8,3.48-7.46,8.61-14.04,15.25-18.99ZM513.15,348.96c-3.12-16.81,6.92-41,20.14-54.32,6.09.85,11.9,3.17,15.46,8.02,8.36,12.14,1.74,28.94-7.97,38.55-6.14,6.02-14.75,10.99-23.31,11.72-3.04.01-3.45-1.21-4.32-3.97ZM1041.78,341.83c-.99-2.73-4.03-4.12-6.74-3.1-22.36,8.03-44.6,17.03-66.76,11.99-3.54-1.09-5.9-2.9-7.5-5.11-3.23-4.43-4.54-12.69-6.64-22.85-1.59-8.13-5.88-19.81-14.22-25.5-14.04-9.39-27.67-5.97-39.7,2.76.14-.64.29-1.27.42-1.93.63-3.72,1.15-7.99.06-12.13-1.44-6.94-8.5-11.38-15.25-10.47-7.94.9-14.09,5.6-19.6,9.81-20.65,17.01-38.47,38.79-60.04,53.83-11.1,7.76-23.25,14.03-36.65,11.28-5.27-.98-9.88-2.88-11.85-7.54v-.02c7.18-3.17,14.35-6.48,21.51-10.04,14.39-7.79,37.86-18.47,38.07-38.01-.49-21.1-21.42-27.29-38.6-21.38-13.33,4.26-24.65,13.27-32.41,24.8-6.74,10.26-10.38,21.77-10.71,33.87-2.14.86-4.28,1.73-6.42,2.59-28.75,11.7-61.39,24.4-92.69,39.99-15.37-18.95-27.83-40.64-18.07-64.69,7.14-18.4,36.89-29.98,55.44-30.12,16.59.15,15.45,8.77,12.25,22.15-.99,3.22,3.36,5.76,5.66,3.2,11.51-11.64,14.25-30.42-1.67-39.91-19.62-10.9-46.98-4.98-65.67,4.8-11.5,5.95-23.3,16.06-28.87,28.76-10.3,22.22-7.76,47.44,3.66,68.45,3.9,7.2,8.26,13.92,12.92,20.3-56.81,32.4-104.04,76.75-106.97,145.65-2.1,46.85,38.84,78.12,79.46,90.27,52.12,16.53,137.46,13.25,162.47-44.73,21.59-55.42-31.5-118.7-66.53-156.24-10.7-11.47-21.64-22.4-31.75-33.54h0c30.41-14.36,61.93-25.8,88.28-37.29l2.97.93c6.44,11.12,19.1,16.61,33.56,16.63,40.8,1.23,74.31-47.6,103.06-70.98,2.89-2.24,5.72-4.49,8.67-5.7-.05.83-.17,1.71-.33,2.64-1.14,6.37-3.75,13.51-6.54,20.36-3.74,9-8.02,18-12.58,26.82-.11.19-.24.4-.35.59-1.96,3.39-3.8,6.72-5.59,10.24-.91,1.79-.26,3.98,1.48,4.96l5.78,3.15c2.61,1.42,5.88.65,7.55-1.81,4.3-6.29,8.98-12.58,13.72-18.43,8.45-10.02,17.38-20.36,28.73-25.69,20.35-9.16,9.31,37.19,38.43,49.62,23.23,9.13,48.69-1.81,70.1-10.88,4.53-1.91,8.99-3.89,13.5-5.72,2.59-1.05,3.91-3.97,2.95-6.62ZM776.32,296.07c4.72-3.48,18.26-9.45,21.94-3.34,1.22,2.52.34,4.75-1.59,7.02-6.62,7.51-16.47,12.23-25.82,16.97-4.27,2.06-8.64,4.03-13.04,5.95,2.8-10.78,9.29-20.3,18.51-26.61ZM659.52,441.77c20.21,21.79,39.64,44.57,52.58,71.02,11.13,21.68,18.4,50.94-1.52,69.56-43.46,42.52-184.4,23.52-181.08-51.2,2.82-63.48,44.08-101.72,93.54-129.18,11.65,13.74,24.37,26.38,36.48,39.8Z"/>
</svg>